<?xml version="1.0" encoding="UTF-8" standalone="no"?>
<svg
   viewBox="0 0 512 512"
   style="height: 512px; width: 512px;"
   version="1.1"
   id="svg3039"
   sodipodi:docname="acrobat.svg"
   inkscape:version="1.2.1 (9c6d41e410, 2022-07-14)"
   xmlns:inkscape="http://www.inkscape.org/namespaces/inkscape"
   xmlns:sodipodi="http://sodipodi.sourceforge.net/DTD/sodipodi-0.dtd"
   xmlns="http://www.w3.org/2000/svg"
   xmlns:svg="http://www.w3.org/2000/svg">
  <defs
     id="defs3043" />
  <sodipodi:namedview
     id="namedview3041"
     pagecolor="#505050"
     bordercolor="#eeeeee"
     borderopacity="1"
     inkscape:showpageshadow="0"
     inkscape:pageopacity="0"
     inkscape:pagecheckerboard="0"
     inkscape:deskcolor="#505050"
     showgrid="false"
     inkscape:zoom="1.6191406"
     inkscape:cx="187.44511"
     inkscape:cy="256.30881"
     inkscape:window-width="1920"
     inkscape:window-height="1009"
     inkscape:window-x="1912"
     inkscape:window-y="-8"
     inkscape:window-maximized="1"
     inkscape:current-layer="svg3039" />
  <g
     class=""
     transform="translate(0,0)"
     style=""
     id="g3037">
    <path
       d="M140.488 19.31s-26.726 65.584-24.572 75.734c1.878 9.191 9.306.316 12.457 7.064 5.59 11.803 55.342 93.663 49.182 98.626-1.558 1.36-39.38-.402-67.961-5.845-52.49-9.998-94.822 2.352-77.039 42.21 26.177 58.653 133.15 154.14 97.89 183.602-40.844 34.159 19.82 117.249 79.275 40.308 10.885-14.085 29.356-73.201-1.614-69.579-37.447 4.38-14.128-30.491-14.128-30.491l23.345-29.92c12.96-1.9 134.534-21.449 134.534-21.449l-4.226-27.002-174.475 20.25s-24.16-32.453-35.964-50.687c-9.37-11.474 62.005 4.88 76.388-10.522 19.968-21.276 7.601-43.88 7.601-43.88L155.35 69.201zm114.619 43.977l-62.759 39.419 16.081 28.897 114.931-58.86zm-124.743 78.84l-46.691 31.612 48.224 10.444 17.417-12.13zm175.08 24.496l-52.166 34.37 51.969 32.462.058-21.93c51.869 12.43 140.22 48.13 126.472 191.26l23.908-73.889 27.884 33.386c-5.502-166.903-150.537-170.593-178.19-171.609zm-74.376 175.953l-19.91 25.873 110.89 14.697s18.638-17.84 15.035-18.976c-27.712-8.623-79.886-16.97-106.015-21.594z"
       fill="#fff"
       fill-opacity="1"
       id="path3035" />
  </g>
</svg>
