<?xml version="1.0" encoding="UTF-8" standalone="no"?>
<svg
   viewBox="0 0 512 512"
   style="height: 512px; width: 512px;"
   version="1.1"
   id="svg2101"
   sodipodi:docname="assassin.svg"
   inkscape:version="1.2.1 (9c6d41e410, 2022-07-14)"
   xmlns:inkscape="http://www.inkscape.org/namespaces/inkscape"
   xmlns:sodipodi="http://sodipodi.sourceforge.net/DTD/sodipodi-0.dtd"
   xmlns="http://www.w3.org/2000/svg"
   xmlns:svg="http://www.w3.org/2000/svg">
  <defs
     id="defs2105" />
  <sodipodi:namedview
     id="namedview2103"
     pagecolor="#505050"
     bordercolor="#eeeeee"
     borderopacity="1"
     inkscape:showpageshadow="0"
     inkscape:pageopacity="0"
     inkscape:pagecheckerboard="0"
     inkscape:deskcolor="#505050"
     showgrid="false"
     inkscape:zoom="1.6191406"
     inkscape:cx="248.58866"
     inkscape:cy="256.61761"
     inkscape:window-width="1350"
     inkscape:window-height="1032"
     inkscape:window-x="1925"
     inkscape:window-y="205"
     inkscape:window-maximized="0"
     inkscape:current-layer="svg2101" />
  <g
     class=""
     transform="translate(0,0)"
     style=""
     id="g2099">
    <path
       d="M233.56 16.225l-15.535 54.302-79.183-12.79-2.98 18.45L212.85 88.62l-14.92 52.163 17.968 5.14 11.028-38.546c92.558 14.84 177.404 26.687 273.004 16.824-78.98-39.333-166.495-51.603-258.832-66.368l10.43-36.467-17.97-5.14zm-68.695 120.443l-13.482 12.953 69.644 72.493-59.63 34.428 9.347 16.19 44.098-25.46c83.234 86.485 160.743 164.186 267.683 231.242-48.682-97.16-128.987-177.16-212.025-263.375l40.176-23.198-9.346-16.19-63.625 36.734-72.84-75.816zm-87.11 13.424l-17.82 5.646 20.942 66.094-53.99 13.613 4.57 18.125 38.824-9.79c25.36 79.632 50.276 151.825 99.097 222.02 2.31-80.818-23.148-155.34-48.488-234.78l37.794-9.528-4.57-18.125-55.08 13.887-21.28-67.162z"
       fill="#fff"
       fill-opacity="1"
       id="path2097" />
  </g>
</svg>
