<?xml version="1.0" encoding="UTF-8" standalone="no"?>
<svg
   viewBox="0 0 512 512"
   style="height: 512px; width: 512px;"
   version="1.1"
   id="svg3335"
   sodipodi:docname="astromancer.svg"
   inkscape:version="1.2.1 (9c6d41e410, 2022-07-14)"
   xmlns:inkscape="http://www.inkscape.org/namespaces/inkscape"
   xmlns:sodipodi="http://sodipodi.sourceforge.net/DTD/sodipodi-0.dtd"
   xmlns="http://www.w3.org/2000/svg"
   xmlns:svg="http://www.w3.org/2000/svg">
  <defs
     id="defs3339" />
  <sodipodi:namedview
     id="namedview3337"
     pagecolor="#505050"
     bordercolor="#eeeeee"
     borderopacity="1"
     inkscape:showpageshadow="0"
     inkscape:pageopacity="0"
     inkscape:pagecheckerboard="0"
     inkscape:deskcolor="#505050"
     showgrid="false"
     inkscape:zoom="1.6191406"
     inkscape:cx="187.44511"
     inkscape:cy="256.30881"
     inkscape:window-width="1920"
     inkscape:window-height="1009"
     inkscape:window-x="1912"
     inkscape:window-y="-8"
     inkscape:window-maximized="1"
     inkscape:current-layer="svg3335" />
  <g
     class=""
     transform="translate(0,0)"
     style=""
     id="g3333">
    <path
       d="M253.625 18.406c-19.833 0-35.688 15.888-35.688 35.72 0 19.833 15.854 35.687 35.688 35.687 19.83 0 35.72-15.857 35.72-35.688 0-19.834-15.89-35.72-35.72-35.72zM93.97 65.25c-5.68 13.142-8.94 26.858-8.94 41.5 0 45.29 29.44 85.21 74.157 108.625L15.75 494.5h77.28l123.564-390.813-37.406 72.813c-50.628-20.564-85.22-61.99-85.22-109.75 0-.505-.007-.977 0-1.5zm315.405 0c.007.505 0 .977 0 1.5 0 46.98-33.468 87.856-82.75 108.75l-39.063-76 129.688 395h73.344L346.47 214.125c43.408-23.57 71.842-62.875 71.842-107.375 0-14.626-3.272-28.37-8.937-41.5zm-173.97 40.938L112.626 494.5h75.47l47.31-388.313zm36.032 4.156L318.25 494.5h79.313L271.438 110.344zm-18.28 4.5L206.906 494.5h92.5l-46.25-379.656z"
       fill="#fff"
       fill-opacity="1"
       id="path3331" />
  </g>
</svg>
