<?xml version="1.0" encoding="UTF-8" standalone="no"?>
<svg
   viewBox="0 0 512 512"
   style="height: 512px; width: 512px;"
   version="1.1"
   id="svg10263"
   sodipodi:docname="champion.svg"
   inkscape:version="1.2.1 (9c6d41e410, 2022-07-14)"
   xmlns:inkscape="http://www.inkscape.org/namespaces/inkscape"
   xmlns:sodipodi="http://sodipodi.sourceforge.net/DTD/sodipodi-0.dtd"
   xmlns="http://www.w3.org/2000/svg"
   xmlns:svg="http://www.w3.org/2000/svg">
  <defs
     id="defs10267" />
  <sodipodi:namedview
     id="namedview10265"
     pagecolor="#505050"
     bordercolor="#eeeeee"
     borderopacity="1"
     inkscape:showpageshadow="0"
     inkscape:pageopacity="0"
     inkscape:pagecheckerboard="0"
     inkscape:deskcolor="#505050"
     showgrid="false"
     inkscape:zoom="1.6191406"
     inkscape:cx="187.44511"
     inkscape:cy="256.30881"
     inkscape:window-width="1920"
     inkscape:window-height="1009"
     inkscape:window-x="1912"
     inkscape:window-y="-8"
     inkscape:window-maximized="1"
     inkscape:current-layer="svg10263" />
  <g
     class=""
     transform="translate(0,0)"
     style=""
     id="g10261">
    <path
       d="M267.9 330.5h-23.8L232 289.6l-63.8-19.8 1 39.4 41.9 47.3 16.1-14.3L239.4 484 130.2 361.8l19.4-58.2-10.4-125.2 23.1-9.8c18.4 71.3 73.1 96.4 73.1 96.4l20.6-28.9 20.6 28.9s54.7-25.1 73.1-96.4l23.1 9.8-10.4 125.2 19.4 58.2L272.6 484l12.2-141.8 16.1 14.3 41.9-47.3 1-39.4-63.8 19.8zm125.8 64.8L318.9 472l56.8-28 6.1 24 51.6-36zm-275.4 0 74.8 76.7-56.8-28-6.1 24-51.6-36zm266.5-117.7L486 219.3C506 31 432.4 18.7 360.5 58.7c0 0 114.1-27.7 66.1 109.4l-35.8 14.7zm-257.6 0L25.96 219.3C6 31 79.61 18.7 151.5 58.7c0 0-114.14-27.7-66.12 109.4l35.82 14.7zM256 125.9l67.5 41.8s-3.2 35-42.4 64.7L256 180.7l-25.1 51.7c-39.2-29.7-42.4-64.7-42.4-64.7z"
       fill="#fff"
       fill-opacity="1"
       id="path10259" />
  </g>
</svg>
