<?xml version="1.0" encoding="UTF-8" standalone="no"?>
<svg
   viewBox="0 0 512 512"
   style="height: 512px; width: 512px;"
   version="1.1"
   id="svg33613"
   sodipodi:docname="priest.svg"
   inkscape:version="1.2.1 (9c6d41e410, 2022-07-14)"
   xmlns:inkscape="http://www.inkscape.org/namespaces/inkscape"
   xmlns:sodipodi="http://sodipodi.sourceforge.net/DTD/sodipodi-0.dtd"
   xmlns="http://www.w3.org/2000/svg"
   xmlns:svg="http://www.w3.org/2000/svg">
  <defs
     id="defs33617" />
  <sodipodi:namedview
     id="namedview33615"
     pagecolor="#505050"
     bordercolor="#eeeeee"
     borderopacity="1"
     inkscape:showpageshadow="0"
     inkscape:pageopacity="0"
     inkscape:pagecheckerboard="0"
     inkscape:deskcolor="#505050"
     showgrid="false"
     inkscape:zoom="1.6191406"
     inkscape:cx="195.16526"
     inkscape:cy="256.30881"
     inkscape:window-width="1920"
     inkscape:window-height="1009"
     inkscape:window-x="1912"
     inkscape:window-y="-8"
     inkscape:window-maximized="1"
     inkscape:current-layer="svg33613" />
  <g
     class=""
     transform="translate(0,0)"
     style=""
     id="g33611">
    <path
       d="M257.47 23.406c-66.354 0-120.158 53.415-120.158 119.313 0 18.87 4.427 36.7 12.282 52.56h-.094l1.938 3.564c.212.395.408.795.625 1.187l45.343 84.19-89.53-47.595v214.5l61.343-32.625 77.405-162.125c-17.123-32.793-48.563-96.2-48.563-119.938 0-32.592 26.59-59 59.407-59 32.816 0 59.436 26.41 59.436 59 0 30.663-51.987 126.665-58.22 138.063L196.97 403.78l.436-.25-2.906 5.376-39.875 83.563h210.813l-47.907-88.94 89.564 47.595v-214.5l-61.688 32.78-96.594 166.658h41.907v18.687h-74.346l8.126-14.03 122.72-211.626 15.874-29.5 2.344-4.313h-.094c7.85-15.86 12.25-33.694 12.25-52.56 0-65.896-53.772-119.314-120.125-119.314zm0 72.78c-22.19 0-39.908 17.658-39.908 39.595 0 21.94 17.717 39.564 39.907 39.564 22.19 0 39.936-17.625 39.936-39.563 0-21.936-17.747-39.593-39.937-39.593z"
       fill="#fff"
       fill-opacity="1"
       id="path33609" />
  </g>
</svg>
