<?xml version="1.0" encoding="UTF-8" standalone="no"?>
<svg
   viewBox="0 0 512 512"
   style="height: 512px; width: 512px;"
   version="1.1"
   id="svg14085"
   sodipodi:docname="thief.svg"
   inkscape:version="1.2.1 (9c6d41e410, 2022-07-14)"
   xmlns:inkscape="http://www.inkscape.org/namespaces/inkscape"
   xmlns:sodipodi="http://sodipodi.sourceforge.net/DTD/sodipodi-0.dtd"
   xmlns="http://www.w3.org/2000/svg"
   xmlns:svg="http://www.w3.org/2000/svg">
  <defs
     id="defs14089" />
  <sodipodi:namedview
     id="namedview14087"
     pagecolor="#505050"
     bordercolor="#eeeeee"
     borderopacity="1"
     inkscape:showpageshadow="0"
     inkscape:pageopacity="0"
     inkscape:pagecheckerboard="0"
     inkscape:deskcolor="#505050"
     showgrid="false"
     showguides="false"
     inkscape:zoom="1.6191406"
     inkscape:cx="195.16526"
     inkscape:cy="256.30881"
     inkscape:window-width="1920"
     inkscape:window-height="1009"
     inkscape:window-x="1912"
     inkscape:window-y="-8"
     inkscape:window-maximized="1"
     inkscape:current-layer="svg14085" />
  <g
     class=""
     transform="translate(0,0)"
     style=""
     id="g14083">
    <path
       d="M325.396 40.29L165.34 149.017c-27.315 13.986-98.18 15.75-146.59 13.43v136.08c24.72-10.865 51.825-20.162 78.604-27.508l-31.967-57.49-3.73-6.706 5.855-4.963c10.993-9.32 23.77-15.852 37.8-16.577 11.967-.618 24.37 3.315 36.01 11.936 9.196-6.337 18.938-10.62 29.397-11.08 10.324-.456 20.665 3.25 30.24 10.477 13.184-10.538 27.613-12.633 39.923-10.092 14.378 2.97 26.573 10.17 37.324 13.55l10.8 3.394-42.26 78.262c58.048 26.817 104.31 72.66 93.85 161.82L393.104 343.4l-107.41-82.445c51.457-18.844 150.272 27.377 146.3 116.654l24.187-104.147L309.59 209.17c51.507-29.956 141.992-23.573 180.12 74.22L476.67 165.103c-77.827 2.3-165.953-5.837-207.322-21.684-10.25 6.4-20.26 14.33-31.692 21.736l-10.162-15.685c13.355-8.65 26.9-20.316 43.26-28.353 31.346-18.998 60.645-30.103 109.496 4.922l-54.856-85.75zM229.902 203.9c-6.932-.154-13.347 2.425-21.838 11.48l-6.552 6.99-6.823-6.725c-8.733-8.607-15.897-11.156-23.15-10.836-7.25.318-15.536 4.065-24.65 11.442l-6.216 5.033-5.932-5.367c-10.492-9.492-19.67-12.425-28.465-11.97-6.787.35-13.73 2.997-20.605 7.61l48.135 86.567c18.32 11.452 55.63 15.793 81.414 2.654l46.827-86.717c-9.24-3.712-17.568-7.712-24.943-9.235-2.523-.52-4.89-.876-7.202-.928zM124.756 314.664c-21.495 14.875-38.772 40.762-45.38 78.69-6.344 36.4 3.688 61.31 21.522 78.207 17.835 16.898 44.47 25.525 71.456 25.174 26.985-.35 53.906-9.69 72.11-26.88 18.206-17.19 28.507-41.804 22.702-76.567-6.052-36.242-21.89-61.475-41.916-76.607-32.782 17.74-74.566 13.87-100.494-2.016z"
       fill="#fff"
       fill-opacity="1"
       id="path14081" />
  </g>
</svg>
