<?xml version="1.0" encoding="UTF-8" standalone="no"?>
<svg
   viewBox="0 0 512 512"
   style="height: 512px; width: 512px;"
   version="1.1"
   id="svg4564"
   sodipodi:docname="avenger.svg"
   inkscape:version="1.2.1 (9c6d41e410, 2022-07-14)"
   xmlns:inkscape="http://www.inkscape.org/namespaces/inkscape"
   xmlns:sodipodi="http://sodipodi.sourceforge.net/DTD/sodipodi-0.dtd"
   xmlns="http://www.w3.org/2000/svg"
   xmlns:svg="http://www.w3.org/2000/svg">
  <defs
     id="defs4568" />
  <sodipodi:namedview
     id="namedview4566"
     pagecolor="#505050"
     bordercolor="#eeeeee"
     borderopacity="1"
     inkscape:showpageshadow="0"
     inkscape:pageopacity="0"
     inkscape:pagecheckerboard="0"
     inkscape:deskcolor="#505050"
     showgrid="false"
     inkscape:zoom="1.6191406"
     inkscape:cx="187.44511"
     inkscape:cy="256.30881"
     inkscape:window-width="1920"
     inkscape:window-height="1009"
     inkscape:window-x="1912"
     inkscape:window-y="-8"
     inkscape:window-maximized="1"
     inkscape:current-layer="svg4564" />
  <g
     class=""
     transform="translate(0,0)"
     style=""
     id="g4562">
    <path
       d="M273.857 21.904c-24.193.012-51.198 5.552-81.1 17.467 143.7 12.608 150.35 129.263 84.032 132.814-85.27 4.565-53.232-57.217-133.34-103.03C200.445 201.48 94.44 190.33 21.054 59.23c12.805 85.755 24.28 116.942 78.26 153.596C261.996 323.294 94.618 347.8 36.82 245.53c14.568 93.454 68.364 132.803 131.707 139.93-42.753 24.49-99.452 32.49-143.01 25.556 51.025 42.317 131.606 40.94 193.515 8.576-37.137 36.123-97.446 70.644-116.803 74.728H276.36C517 405.563 530.305 232.45 454.827 124.492c-2.433 26.21-10.08 49.507-25.545 70.23-18.48-102.394-69.02-172.86-155.426-172.818zm2.82 184.666l141.384 52.155c.286-3.207.86-6.495 1.747-9.807 5.62-20.973 21.605-34.913 35.705-31.135 14.1 3.778 20.973 23.842 15.353 44.815-5.62 20.974-21.603 34.914-35.703 31.136-.725-.194-1.427-.442-2.113-.72l-60.58 49.394 70.637 19.584-140.023 84.71 65.848-68.866-31.32-7.006-150.335 122.58 158.06-196.89-137.39-41.137 137.006 5.654-68.275-54.467z"
       fill="#fff"
       fill-opacity="1"
       id="path4560" />
  </g>
</svg>
