<?xml version="1.0" encoding="UTF-8" standalone="no"?>
<svg
   viewBox="0 0 512 512"
   style="height: 512px; width: 512px;"
   version="1.1"
   id="svg16510"
   sodipodi:docname="destroyer.svg"
   inkscape:version="1.2.1 (9c6d41e410, 2022-07-14)"
   xmlns:inkscape="http://www.inkscape.org/namespaces/inkscape"
   xmlns:sodipodi="http://sodipodi.sourceforge.net/DTD/sodipodi-0.dtd"
   xmlns="http://www.w3.org/2000/svg"
   xmlns:svg="http://www.w3.org/2000/svg">
  <defs
     id="defs16514" />
  <sodipodi:namedview
     id="namedview16512"
     pagecolor="#505050"
     bordercolor="#eeeeee"
     borderopacity="1"
     inkscape:showpageshadow="0"
     inkscape:pageopacity="0"
     inkscape:pagecheckerboard="0"
     inkscape:deskcolor="#505050"
     showgrid="false"
     inkscape:zoom="1.6191406"
     inkscape:cx="187.44511"
     inkscape:cy="256.30881"
     inkscape:window-width="1920"
     inkscape:window-height="1009"
     inkscape:window-x="1912"
     inkscape:window-y="-8"
     inkscape:window-maximized="1"
     inkscape:current-layer="svg16510" />
  <g
     class=""
     transform="translate(0,0)"
     style=""
     id="g16508">
    <path
       d="M267.785 16.48L203.56 67.027l75.544 159.854L359.057 34.18 267.785 16.48zm-126.988 1.965L95.7 27.595l157.327 213.89-112.23-223.04zm-96.57 9.842L17.865 65.135l207.877 180.478L44.227 28.287zm383.63 29.95L366.324 88.56l-56.822 144.817L453.72 98.367l-25.863-40.13zm54.235 44.972l-64.012 83.163 74.236-38.38-10.224-44.784zm-452.2 45.636l-11.35 58.642 195.21 58.627L112.5 184.158l-13.242 30.9-69.365-66.212zM493 188.518l-81.836 38.34 23.11 53.92-13.274 51.67 72 8.835V188.518zM19.863 234.83l.9 39.863 104.135-1.816L19.863 234.83zm25.45 63.164L28.81 342.65l171.92-41.332-155.416-3.324zm335.36 48.334l-42.708 46.11 33.232 35.515-97.865 2.7 12.658 62.208h207.008V360.114l-112.326-13.785zM133.85 356.783L19.697 410.266v82.595h107.51l45.453-87.233-38.81-48.844zm65.158 38.686l.015.007-50.744 97.384h118.64l-15.916-78.208-51.996-19.183z"
       fill="#fff"
       fill-opacity="1"
       id="path16506" />
  </g>
</svg>
