<?xml version="1.0" encoding="UTF-8" standalone="no"?>
<svg
   viewBox="0 0 512 512"
   style="height: 512px; width: 512px;"
   version="1.1"
   id="svg25062"
   sodipodi:docname="hexer.svg"
   inkscape:version="1.2.1 (9c6d41e410, 2022-07-14)"
   xmlns:inkscape="http://www.inkscape.org/namespaces/inkscape"
   xmlns:sodipodi="http://sodipodi.sourceforge.net/DTD/sodipodi-0.dtd"
   xmlns="http://www.w3.org/2000/svg"
   xmlns:svg="http://www.w3.org/2000/svg">
  <defs
     id="defs25066" />
  <sodipodi:namedview
     id="namedview25064"
     pagecolor="#505050"
     bordercolor="#eeeeee"
     borderopacity="1"
     inkscape:showpageshadow="0"
     inkscape:pageopacity="0"
     inkscape:pagecheckerboard="0"
     inkscape:deskcolor="#505050"
     showgrid="false"
     inkscape:zoom="1.6191406"
     inkscape:cx="195.16526"
     inkscape:cy="256.30881"
     inkscape:window-width="1920"
     inkscape:window-height="1009"
     inkscape:window-x="1912"
     inkscape:window-y="-8"
     inkscape:window-maximized="1"
     inkscape:current-layer="svg25062" />
  <g
     class=""
     transform="translate(0,0)"
     style=""
     id="g25060">
    <path
       d="M259.125 16.938L216.22 128.094 97.343 164.25l106.53-4.22-36.436 94.407L270.156 106.25l50.22 64.406-61.25-153.72zm50.406 63.687l36.376 102.28-102.344-6.75 172.063 53.876-46.5 67.126 128.47-104.28-116.94-7.69-71.124-104.56zm-123.467 98.97L20.97 190.437l87.936 71.375-.375 127.125 27.75-104.907 82.345 66.845L109.345 207.5l76.718-27.906zm71.156 18.968c-22.404 0-44.817 25.943-67.22 77.875 43.462 77.53 88.133 86.365 134.438 0-22.403-51.93-44.816-77.875-67.22-77.875zm.405 15.687c11.05 8.62 19 30.54 19 56.438 0 25.896-7.95 47.818-19 56.437-11.05-8.62-19-30.54-19-56.438 0-25.896 7.95-47.818 19-56.437zm82.53 10.594l5.19 180.22-78.595-22.064 140.47 87.438-30.408-111.313 73.563-103.47-82.875 69.376-27.344-100.186zM152.94 309.03l-43.594 159.595 98.906-61.53 120.656 39.436-90.5-58.217 87.094-54.188-171.22 56.53-1.343-81.624z"
       fill="#fff"
       fill-opacity="1"
       id="path25058" />
  </g>
</svg>
