<?xml version="1.0" encoding="UTF-8" standalone="no"?>
<svg
   viewBox="0 0 512 512"
   style="height: 512px; width: 512px;"
   version="1.1"
   id="svg874"
   sodipodi:docname="one-eyed.svg"
   inkscape:version="1.2.1 (9c6d41e410, 2022-07-14)"
   xmlns:inkscape="http://www.inkscape.org/namespaces/inkscape"
   xmlns:sodipodi="http://sodipodi.sourceforge.net/DTD/sodipodi-0.dtd"
   xmlns="http://www.w3.org/2000/svg"
   xmlns:svg="http://www.w3.org/2000/svg">
  <defs
     id="defs878" />
  <sodipodi:namedview
     id="namedview876"
     pagecolor="#505050"
     bordercolor="#eeeeee"
     borderopacity="1"
     inkscape:showpageshadow="0"
     inkscape:pageopacity="0"
     inkscape:pagecheckerboard="0"
     inkscape:deskcolor="#505050"
     showgrid="false"
     inkscape:zoom="1.1449053"
     inkscape:cx="100.8817"
     inkscape:cy="240.19454"
     inkscape:window-width="1920"
     inkscape:window-height="1009"
     inkscape:window-x="-8"
     inkscape:window-y="-8"
     inkscape:window-maximized="1"
     inkscape:current-layer="svg874" />
  <g
     class=""
     transform="translate(0,0)"
     id="g872"
     style="">
    <g
       id="g870">
      <path
         id="path864"
         style="display:inline;fill:#ffffff;fill-opacity:1"
         class=""
         d="M 255.96875 22.75 C 211.56456 22.750749 170.87023 48.184671 140.7207 90.875 C 110.56873 133.56496 91.5625 193.28457 91.5625 259.4375 C 91.5625 325.58943 110.56778 385.30804 140.71875 428 C 170.86872 470.68996 211.56379 496.125 255.96875 496.125 C 300.37071 496.125 341.03653 470.69096 371.1875 428 C 401.33747 385.31004 420.37305 325.59043 420.37305 259.4375 C 420.37305 193.28557 401.33652 133.56696 371.18555 90.875 C 341.03602 48.185671 300.37289 22.750749 255.9707 22.75 L 255.96875 22.75 z M 157.21875 234.5625 L 157.2207 234.5625 C 159.10304 234.53754 160.9684 234.55502 162.84375 234.625 C 155.98877 239.89898 151.56445 248.18302 151.56445 257.5 C 151.56445 273.42996 164.47429 286.34375 180.40625 286.34375 C 196.33821 286.34375 209.25 273.43096 209.25 257.5 C 209.25 252.885 208.177 248.52425 206.25 244.65625 C 219.57998 250.31623 232.72452 258.27027 245.6875 268.28125 C 208.62058 330.43913 116.89098 293.34815 108.5 245.78125 C 125.05129 238.37757 141.26641 234.77077 157.21875 234.5625 z M 355.93359 234.5625 L 355.93555 234.5625 C 371.88788 234.77077 388.10105 238.37757 404.65234 245.78125 C 396.26136 293.34815 304.53178 330.43913 267.46484 268.28125 C 280.42782 258.27027 293.57238 250.31623 306.90234 244.65625 C 304.97536 248.52425 303.90234 252.885 303.90234 257.5 C 303.90234 273.43096 316.81607 286.34375 332.74805 286.34375 C 348.68001 286.34375 361.58984 273.42996 361.58984 257.5 C 361.58984 248.18302 357.16359 239.89898 350.30859 234.625 C 352.18394 234.55502 354.05127 234.53754 355.93359 234.5625 z " />
    </g>
  </g>
</svg>
