<?xml version="1.0" encoding="UTF-8" standalone="no"?>
<svg
   viewBox="0 0 512 512"
   style="height: 512px; width: 512px;"
   version="1.1"
   id="svg12073"
   sodipodi:docname="templar.svg"
   inkscape:version="1.2.1 (9c6d41e410, 2022-07-14)"
   xmlns:inkscape="http://www.inkscape.org/namespaces/inkscape"
   xmlns:sodipodi="http://sodipodi.sourceforge.net/DTD/sodipodi-0.dtd"
   xmlns="http://www.w3.org/2000/svg"
   xmlns:svg="http://www.w3.org/2000/svg">
  <defs
     id="defs12077" />
  <sodipodi:namedview
     id="namedview12075"
     pagecolor="#505050"
     bordercolor="#eeeeee"
     borderopacity="1"
     inkscape:showpageshadow="0"
     inkscape:pageopacity="0"
     inkscape:pagecheckerboard="0"
     inkscape:deskcolor="#505050"
     showgrid="false"
     inkscape:zoom="1.6191406"
     inkscape:cx="195.16526"
     inkscape:cy="256.30881"
     inkscape:window-width="1920"
     inkscape:window-height="1009"
     inkscape:window-x="1912"
     inkscape:window-y="-8"
     inkscape:window-maximized="1"
     inkscape:current-layer="svg12073" />
  <g
     class=""
     transform="translate(0,0)"
     style=""
     id="g12071">
    <path
       d="M256 21.938l-4.025 2.01c-96 48-93.455 47.175-189.455 63.175l-8.592 1.432 1.15 8.634c16.125 120.934 48.338 217.868 85.022 285.12 18.34 33.627 37.776 59.85 57.263 78.022C216.85 478.502 236.625 489 256 489s39.15-10.497 58.637-28.668c19.487-18.17 38.922-44.395 57.263-78.02 36.684-67.254 68.897-164.188 85.022-285.123l1.15-8.635-8.592-1.432c-96-16-93.455-15.174-189.455-63.174L256 21.937zM224 64c16 0 16 0 32 16 16-16 16-16 32-16-16 16-16 16-16 32l2.666 48h109.158S400 144 416 128c0 16 0 16-16 32 16 16 16 16 16 32-16-16-32.176-16-32.176-16h-107.38L288 384s0 32 16 64c-16 0-48 0-48-16 0 16-32 16-48 16 16-32 16-64 16-64l11.555-208H128.13S112 176 96 192c0-16 0-16 16-32-16-16-16-16-16-32 16 16 32.13 16 32.13 16h109.204L240 96c0-16 0-16-16-32z"
       fill="#fff"
       fill-opacity="1"
       id="path12069" />
  </g>
</svg>
