<?xml version="1.0" encoding="UTF-8" standalone="no"?>
<svg
   viewBox="0 0 512 512"
   style="height: 512px; width: 512px;"
   version="1.1"
   id="svg12576"
   sodipodi:docname="tenebrist.svg"
   inkscape:version="1.2.1 (9c6d41e410, 2022-07-14)"
   xmlns:inkscape="http://www.inkscape.org/namespaces/inkscape"
   xmlns:sodipodi="http://sodipodi.sourceforge.net/DTD/sodipodi-0.dtd"
   xmlns="http://www.w3.org/2000/svg"
   xmlns:svg="http://www.w3.org/2000/svg">
  <defs
     id="defs12580" />
  <sodipodi:namedview
     id="namedview12578"
     pagecolor="#505050"
     bordercolor="#eeeeee"
     borderopacity="1"
     inkscape:showpageshadow="0"
     inkscape:pageopacity="0"
     inkscape:pagecheckerboard="0"
     inkscape:deskcolor="#505050"
     showgrid="false"
     inkscape:zoom="1.6191406"
     inkscape:cx="195.16526"
     inkscape:cy="256.30881"
     inkscape:window-width="1920"
     inkscape:window-height="1009"
     inkscape:window-x="1912"
     inkscape:window-y="-8"
     inkscape:window-maximized="1"
     inkscape:current-layer="svg12576" />
  <g
     class=""
     transform="translate(0,0)"
     style=""
     id="g12574">
    <path
       d="M128.912 21.563c-.507.012-1.01.043-1.504.11C97.753 25.525 74.6 57.76 74.6 96.662c0 21.547 7.39 40.787 18.767 54.5-61.678 11.593-66.342 115.44-66.342 188.347h42.772l11.348 152.158h108.68L199.86 339.51h40.593c0-73.108 1.47-178.783-65.904-189.22 10.89-13.647 17.893-32.613 17.893-53.628 0-41.496-26.445-74.99-58.923-74.99-1.523 0-3.087-.146-4.608-.11zm239.828 0c-.507.012-1.01.043-1.504.11-29.655 3.853-52.808 36.087-52.808 74.99 0 21.547 7.39 40.787 18.767 54.5-61.678 11.593-66.34 115.44-66.34 188.347h30.323l-10.17-11.422c-.31-51.837 1.858-95.18 24.008-135.484l-1.543 146.906h.152l11.348 152.158h86.013l-66.03-12.006c-11.876-104.37-18.402-205.544-4.09-308.36 0 0 9.455-6.07 24.03-13.396-14.157-12.08-23.552-33.24-23.552-57.345 0-37.564 22.797-68.013 50.918-68.013 8.887 0 17.24 3.046 24.51 8.392-10.45-11.98-24.28-19.268-39.424-19.268-1.523 0-3.087-.146-4.608-.11zm69.192 171.308l1.685 147.214 22.324-.262c.31-51.836-1.86-106.647-24.008-146.95zm1.685 147.214h-.002l.002.006v-.006z"
       fill="#fff"
       fill-opacity="1"
       id="path12572" />
  </g>
</svg>
